Coordinates
version=1
nRows=7
nColumns=46
inDegrees=yes

Units are S.I. units (second, meters, Newtons, ...)
Angles are in degrees.

endheader
time	pelvis_tilt	pelvis_list	pelvis_rotation	pelvis_tx	pelvis_ty	pelvis_tz	bb_angle	bb_tx	bb_ty	bb_tz	hip_flexion_r	hip_adduction_r	hip_rotation_r	knee_angle_r	knee_angle_r_beta	ankle_angle_r	subtalar_angle_r	mtp_angle_r	crank_angle_r	hip_flexion_l	hip_adduction_l	hip_rotation_l	knee_angle_l	knee_angle_l_beta	ankle_angle_l	subtalar_angle_l	mtp_angle_l	crank_angle_l	lumbar_extension	lumbar_bending	lumbar_rotation	arm_flex_r	arm_add_r	arm_rot_r	elbow_flex_r	pro_sup_r	wrist_flex_r	wrist_dev_r	arm_flex_l	arm_add_l	arm_rot_l	elbow_flex_l	pro_sup_l	wrist_flex_l	wrist_dev_l
      2.50500000	    -23.51586716	     -2.12073804	     -9.94221360	      0.02305545	      1.00594556	     -0.21870901	      0.00000000	      0.50000000	      0.00000000	      0.25000000	     98.35383890	      3.90759519	      2.11633837	     98.03437950	      1.71102270	     24.29896964	     -9.86610705	      0.00000000	      0.00000000	     58.10126584	    -12.23926880	     -1.13162726	     48.23825579	      0.84191639	    -32.53575872	    -14.14534508	      0.00000000	      0.00000000	    -52.04329538	      6.37316873	      4.48410489	     89.68224318	     -0.95764553	     25.74656982	     63.16549368	     31.75512261	      0.00000000	      0.00000000	     89.17139505	    -39.92338201	     39.32463054	     67.13898307	     40.79299381	      0.00000000	      0.00000000
      2.51000000	    -23.51193452	     -1.91998810	     -9.84671098	      0.02316903	      1.00588599	     -0.21820941	      0.00000000	      0.50000000	      0.00000000	      0.25000000	     97.98941682	      3.99532229	      2.32135272	     96.93610137	      1.69185413	     24.27415629	    -10.27230435	      0.00000000	      0.00000000	     58.36067653	    -11.96849409	     -0.86950033	     49.43261325	      0.86276186	    -31.87239131	    -14.56032529	      0.00000000	      0.00000000	    -52.26514664	      6.29168228	      4.16850398	     89.68168977	     -0.99564986	     25.76224463	     63.75983800	     33.34339097	      0.00000000	      0.00000000	     89.10654253	    -40.35187216	     38.84492227	     67.80076638	     41.42466949	      0.00000000	      0.00000000
      2.51500000	    -23.49210013	     -1.86399496	     -9.72349038	      0.02341765	      1.00594244	     -0.21767931	      0.00000000	      0.50000000	      0.00000000	      0.25000000	     97.58279598	      4.00024222	      2.34798254	     95.88385008	      1.67348888	     24.26470826	    -10.48924399	      0.00000000	      0.00000000	     58.60153807	    -11.85381850	     -0.57469049	     50.62680791	      0.88360449	    -30.72876214	    -14.11705898	      0.00000000	      0.00000000	    -52.55451646	      6.41142087	      3.93213002	     89.68115443	     -0.83167877	     25.83973855	     63.99830851	     35.19437498	      0.00000000	      0.00000000	     89.16581039	    -41.35713251	     39.00603243	     68.53595959	     42.24992477	      0.00000000	      0.00000000
      2.52000000	    -23.47317555	     -1.72841933	     -9.58056020	      0.02364591	      1.00601097	     -0.21717970	      0.00000000	      0.50000000	      0.00000000	      0.25000000	     97.18409518	      3.98272026	      2.47349156	     94.82192350	      1.65495477	     24.13904545	    -10.72300391	      0.00000000	      0.00000000	     58.81225873	    -11.65538027	     -0.35766479	     51.77711689	      0.90368117	    -29.72646509	    -14.03484084	      0.00000000	      0.00000000	    -52.82130785	      6.46256228	      3.58828291	     89.68120979	     -0.66646704	     25.81875117	     64.41356527	     36.57275660	      0.00000000	      0.00000000	     89.14998664	    -42.15902281	     38.86474926	     69.30465307	     42.91062844	      0.00000000	      0.00000000
      2.52500000	    -23.35720132	     -1.50792927	     -9.33386468	      0.02387605	      1.00604006	     -0.21677826	      0.00000000	      0.50000000	      0.00000000	      0.25000000	     96.74119729	      3.84064756	      2.71226663	     93.84852521	      1.63796576	     23.97166117	    -10.87435284	      0.00000000	      0.00000000	     58.90774632	    -11.28629341	     -0.18758598	     52.88689455	      0.92305044	    -28.87586061	    -14.31347998	      0.00000000	      0.00000000	    -53.13386144	      6.48945523	      3.25011968	     89.67909576	     -0.61832628	     25.65804270	     65.06808467	     37.07821546	      0.00000000	      0.00000000	     89.13134837	    -42.39177079	     38.17308148	     69.67464353	     43.07113333	      0.00000000	      0.00000000
      2.53000000	    -23.36048027	     -1.36659843	     -9.07376689	      0.02430651	      1.00597502	     -0.21638463	      0.00000000	      0.50000000	      0.00000000	      0.25000000	     96.36816800	      3.65353077	      2.78695247	     92.82340050	      1.62007396	     23.79675725	    -11.18180667	      0.00000000	      0.00000000	     59.12737836	    -11.04053868	      0.00142255	     54.01513675	      0.94274198	    -27.62584089	    -13.85901875	      0.00000000	      0.00000000	    -53.36643427	      6.62824155	      2.68686428	     89.68106248	     -0.30899385	     25.74325874	     65.39921225	     38.15073540	      0.00000000	      0.00000000	     89.11352903	    -43.74237561	     38.46603279	     70.95956872	     43.72578130	      0.00000000	      0.00000000
      2.53500000	    -23.30901483	     -1.15882791	     -8.77205851	      0.02468146	      1.00605317	     -0.21603556	      0.00000000	      0.50000000	      0.00000000	      0.25000000	     95.95708925	      3.40251534	      2.95514856	     91.83499011	      1.60282295	     23.56916404	    -11.19415548	      0.00000000	      0.00000000	     59.24499833	    -10.67831448	      0.11085450	     55.02130504	      0.96030293	    -26.79956812	    -14.10764747	      0.00000000	      0.00000000	    -53.63564460	      6.69282443	      2.49412154	     89.67653315	     -0.42090278	     25.51635661	     66.10341312	     38.59179890	      0.00000000	      0.00000000	     89.05311490	    -43.64232131	     37.51404720	     71.16213354	     43.80874095	      0.00000000	      0.00000000
